<svg width="24" height="24" viewBox="0 0 24 24" fill="none" xmlns="http://www.w3.org/2000/svg">
    <g id="loading">
        <path d="M3 12C2.44772 12 1.99481 12.4488 2.04993 12.9984C2.27888 15.2808 3.28771 17.4269 4.92261 19.0647C6.79411 20.9396 9.33305 21.9952 11.9821 22C14.6312 22.0047 17.1739 20.9582 19.0521 19.09C20.9303 17.2219 21.9905 14.6848 21.9999 12.0358C22.0094 9.38673 20.9674 6.84216 19.1026 4.96063C17.2378 3.0791 14.7027 2.01436 12.0537 2.00014C9.40465 1.98592 6.85821 3.02339 4.97335 4.88479C3.32677 6.51088 2.3026 8.64967 2.05733 10.9304C1.99828 11.4796 2.44796 11.9316 3.00023 11.9356C3.5525 11.9395 3.99697 11.4933 4.06974 10.9458C4.30233 9.19585 5.10931 7.5614 6.37868 6.30783C7.88657 4.81871 9.92372 3.98874 12.0429 4.00011C14.1622 4.01149 16.1903 4.86328 17.6821 6.3685C19.1739 7.87373 20.0075 9.90939 19.9999 12.0286C19.9924 14.1479 19.1442 16.1775 17.6417 17.672C16.1391 19.1665 14.1049 20.0038 11.9857 20C9.86644 19.9962 7.83528 19.1517 6.33809 17.6518C5.07772 16.3892 4.28246 14.749 4.06239 12.9974C3.99355 12.4495 3.55229 12 3 12Z"
              fill="url(#paint0_angular_4_72)"/>
        <defs>
            <radialGradient id="paint0_angular_4_72" cx="0" cy="0" r="1" gradientUnits="userSpaceOnUse"
                            gradientTransform="translate(12 12) rotate(-180) scale(5.83333)">
                <stop stop-color="white" stop-opacity="0"/>
                <stop offset="1" stop-color="#512DE4"/>
            </radialGradient>
        </defs>
    </g>
</svg>

